Coordinates
version=1
nRows=26
nColumns=24
inDegrees=yes

Units are S.I. units (second, meters, Newtons, ...)
Angles are in degrees.

endheader
time	pelvis_tilt	pelvis_list	pelvis_rotation	pelvis_tx	pelvis_ty	pelvis_tz	hip_flexion_r	hip_adduction_r	hip_rotation_r	knee_angle_r	ankle_angle_r	subtalar_angle_r	mtp_angle_r	hip_flexion_l	hip_adduction_l	hip_rotation_l	knee_angle_l	ankle_angle_l	subtalar_angle_l	mtp_angle_l	lumbar_extension	lumbar_bending	lumbar_rotation
      6.30000000	     10.48304248	     -0.16390743	     -0.16042211	      2.68914808	      0.88598296	     -0.27196282	    -35.94550198	      3.10180307	     -1.74356731	     -6.69705141	     20.01344722	      6.47145211	      0.00000000	     15.88095439	      3.45234727	      2.74530150	    -11.25411026	      6.00481296	     -8.41883719	      0.00000000	    -28.97925589	      2.92946810	      1.00697781
      6.31000000	     10.42162065	      0.25839568	     -0.36750222	      2.70651314	      0.88510869	     -0.27319138	    -35.79574837	      2.33533159	     -2.77596875	     -8.61147510	     18.72524651	      7.53940968	      0.00000000	     15.99874920	      4.14825028	      2.43831460	    -13.28122741	      6.08647529	     -8.12649397	      0.00000000	    -28.53784681	      2.31035161	      1.02767634
      6.32000000	     10.41035138	      0.75899402	     -0.58665867	      2.72391064	      0.88466661	     -0.27439830	    -35.50993744	      1.45806936	     -3.82902692	    -10.76369815	     17.02556927	      8.42157155	      0.00000000	     15.96200291	      4.89955992	      2.24755328	    -15.00456627	      6.03385738	     -8.16285352	      0.00000000	    -28.19270013	      1.59426166	      0.99576538
      6.33000000	     10.45511877	      1.32306388	     -0.74199975	      2.74113530	      0.88462293	     -0.27561952	    -35.06177368	      0.52961186	     -4.90767079	    -13.18607837	     14.88278613	      9.04751056	      0.00000000	     15.87619627	      5.69307791	      2.06787462	    -16.62902933	      6.09688785	     -8.28938672	      0.00000000	    -27.98393172	      0.81882040	      0.85729999
      6.34000000	     10.57970561	      1.91496964	     -0.81176809	      2.75801627	      0.88496963	     -0.27680866	    -34.45435593	     -0.38490918	     -5.85145145	    -15.89576071	     12.19479812	      9.16014297	      0.00000000	     15.75245200	      6.48921262	      1.86742763	    -18.26531766	      6.34979070	     -8.40239398	      0.00000000	    -27.97053443	      0.02347205	      0.61727258
      6.35000000	     10.71673725	      2.46811851	     -0.74724230	      2.77448773	      0.88548761	     -0.27805709	    -33.54092220	     -1.27668399	     -7.08748949	    -19.03030734	      9.33369619	      9.50462383	      0.00000000	     15.74096823	      7.20592884	      1.49836988	    -20.13017332	      7.28462070	     -8.02455146	      0.00000000	    -28.07081067	     -0.67920471	      0.25136565
      6.36000000	     10.89887275	      2.94322337	     -0.64036277	      2.79049520	      0.88623154	     -0.27918096	    -32.39937323	     -2.08684406	     -8.03062425	    -22.47179312	      6.02940246	      9.28339897	      0.00000000	     15.69403993	      7.79270571	      1.04258244	    -22.06426531	      8.56524133	     -7.38946305	      0.00000000	    -28.32594034	     -1.29836426	     -0.09299119
      6.37000000	     11.08108243	      3.33950481	     -0.54646818	      2.80609674	      0.88708347	     -0.28019813	    -30.96721579	     -2.87867985	     -8.80166951	    -26.24238477	      2.58267234	      8.82324241	      0.00000000	     15.57966939	      8.26671148	      0.59018363	    -23.95317822	     10.12044898	     -6.64657242	      0.00000000	    -28.64535624	     -1.82366853	     -0.41041479
      6.38000000	     11.22905636	      3.67779587	     -0.55289274	      2.82137010	      0.88800157	     -0.28105338	    -29.23204600	     -3.70670057	     -9.31055746	    -30.28187389	     -0.78917333	      8.19447514	      0.00000000	     15.33663405	      8.65351433	      0.15322391	    -25.61461443	     11.80925132	     -5.92183626	      0.00000000	    -28.94786549	     -2.30256453	     -0.65997034
      6.39000000	     11.33275744	      3.97184465	     -0.74244210	      2.83634298	      0.88898892	     -0.28167098	    -27.20565020	     -4.60487930	     -9.50228187	    -34.51860742	     -3.83740335	      7.44826756	      0.00000000	     14.92625155	      8.95069353	     -0.36743662	    -26.92208004	     13.47038657	     -5.23523956	      0.00000000	    -29.19601247	     -2.77717293	     -0.73951564
      6.40000000	     11.37554099	      4.23310746	     -1.13791274	      2.85107097	      0.89004207	     -0.28205766	    -24.92426558	     -5.55731489	     -9.35657619	    -38.82663106	     -6.33087152	      6.67705020	      0.00000000	     14.34453062	      9.17767276	     -0.99227239	    -27.80835629	     15.04822227	     -4.60014021	      0.00000000	    -29.33746719	     -3.25668034	     -0.64071079
      6.41000000	     11.34543270	      4.49371196	     -1.74128889	      2.86561736	      0.89117463	     -0.28218536	    -22.43535298	     -6.52185487	     -8.81548326	    -43.07273571	     -8.05805805	      5.93537356	      0.00000000	     13.58859369	      9.38697302	     -1.69537564	    -28.21725442	     16.46987442	     -4.12123560	      0.00000000	    -29.33291612	     -3.78736377	     -0.44347801
      6.42000000	     11.26637682	      4.72300227	     -2.48498464	      2.87997968	      0.89244646	     -0.28210784	    -19.83522896	     -7.38632020	     -7.94626563	    -47.11022527	     -8.86645465	      5.31853790	      0.00000000	     12.66587743	      9.56666885	     -2.43689785	    -28.19643195	     17.69802482	     -3.77494124	      0.00000000	    -29.20853304	     -4.31125559	     -0.16661277
      6.43000000	     11.17279660	      4.90144960	     -3.25930077	      2.89415871	      0.89390796	     -0.28196948	    -17.23969754	     -8.08479668	     -6.93534296	    -50.81627801	     -8.71636964	      4.90391279	      0.00000000	     11.59977799	      9.72064779	     -3.16537833	    -27.85922692	     18.74760325	     -3.52729507	      0.00000000	    -29.01173995	     -4.75603491	      0.12351333
      6.44000000	     11.06152875	      4.99267532	     -3.95152575	      2.90815752	      0.89561907	     -0.28184774	    -14.72147176	     -8.51289399	     -5.87836548	    -54.08967297	     -7.62752825	      4.72088889	      0.00000000	     10.41206180	      9.83985661	     -3.71464053	    -27.25823648	     19.62293530	     -3.36247742	      0.00000000	    -28.75708919	     -5.05982452	      0.36375907
      6.45000000	     10.92662387	      4.97755713	     -4.45180450	      2.92196569	      0.89760675	     -0.28186660	    -12.32871548	     -8.65063825	     -4.95647864	    -56.88530316	     -5.70874021	      4.76499938	      0.00000000	      9.15195004	      9.90592884	     -4.01377600	    -26.48768228	     20.30714344	     -3.25740826	      0.00000000	    -28.46465562	     -5.16484763	      0.50067767
      6.46000000	     10.79621135	      4.85983833	     -4.71602600	      2.93554715	      0.89992067	     -0.28207070	    -10.09486343	     -8.53980174	     -4.27858002	    -59.21418642	     -3.22248067	      5.04129934	      0.00000000	      7.82498977	      9.90696812	     -4.06900321	    -25.61408865	     20.81093870	     -3.25006281	      0.00000000	    -28.20272797	     -5.07120668	      0.45767761
      6.47000000	     10.64205656	      4.63565420	     -4.69922986	      2.94894890	      0.90256000	     -0.28251666	     -7.98392354	     -8.21185421	     -3.93266213	    -61.09219542	     -0.42329290	      5.47277825	      0.00000000	      6.45782387	      9.82254102	     -3.83769501	    -24.64428826	     21.12632874	     -3.25108423	      0.00000000	    -27.93693711	     -4.76369562	      0.28377088
      6.48000000	     10.38909871	      4.39181904	     -4.40217463	      2.96211811	      0.90533902	     -0.28321882	     -5.83469195	     -7.81316979	     -3.95756340	    -62.63610766	      2.35008281	      5.90756327	      0.00000000	      5.17679627	      9.72708949	     -3.30712706	    -23.62733298	     21.22867170	     -3.38074806	      0.00000000	    -27.60590579	     -4.34850714	     -0.13089352
      6.49000000	     10.18055314	      4.09652436	     -3.91652856	      2.97510172	      0.90842553	     -0.28402987	     -3.79945070	     -7.35713145	     -4.28018918	    -63.81845287	      4.89394455	      6.31550108	      0.00000000	      3.80849625	      9.54492072	     -2.69010789	    -22.53100089	     21.21555572	     -3.37808079	      0.00000000	    -27.35997446	     -3.83754069	     -0.64652225
      6.50000000	      9.89964134	      3.79633822	     -3.30281083	      2.98791462	      0.91156768	     -0.28491292	     -1.73635299	     -6.91434639	     -4.82390259	    -64.67614425	      7.06237325	      6.55259941	      0.00000000	      2.49709823	      9.32526739	     -1.99159988	    -21.35774969	     21.01397739	     -3.49457567	      0.00000000	    -27.05429648	     -3.29643105	     -1.23617611
      6.51000000	      9.58677311	      3.50055379	     -2.62820453	      3.00053299	      0.91472863	     -0.28577350	      0.28857537	     -6.49895149	     -5.49857149	    -65.19078542	      8.85168338	      6.59039034	      0.00000000	      1.21616759	      9.07650835	     -1.27137304	    -20.12800599	     20.64455360	     -3.69927112	      0.00000000	    -26.74573726	     -2.76708979	     -1.85157171
      6.52000000	      9.25753613	      3.21762650	     -1.95902415	      3.01298295	      0.91784815	     -0.28654963	      2.25195836	     -6.13356874	     -6.23659285	    -65.36804481	     10.28022878	      6.45933658	      0.00000000	     -0.04755467	      8.81459064	     -0.56921402	    -18.84622420	     20.11603617	     -4.00333959	      0.00000000	    -26.43688758	     -2.27708420	     -2.45078645
      6.53000000	      8.91768703	      2.96127020	     -1.30253845	      3.02527450	      0.92087727	     -0.28725453	      4.14251749	     -5.83921838	     -7.02492489	    -65.21799604	     11.38584147	      6.20707588	      0.00000000	     -1.29489941	      8.56290756	      0.13154300	    -17.52506741	     19.43420469	     -4.39409784	      0.00000000	    -26.14122260	     -1.84206147	     -2.95745170
      6.54000000	      8.61243475	      2.72202073	     -0.72463508	      3.03741125	      0.92380104	     -0.28781198	      5.92870805	     -5.57931449	     -7.75741783	    -64.76384640	     12.25810236	      5.86695393	      0.00000000	     -2.58531628	      8.33022017	      0.84675889	    -16.14469496	     18.52953666	     -5.11941833	      0.00000000	    -25.91029240	     -1.46674760	     -3.42287227
      6.55000000	      8.28222901	      2.53186218	     -0.18441740	      3.04941730	      0.92648299	     -0.28828871	      7.67123291	     -5.40542719	     -8.48656243	    -64.02995171	     12.95468966	      5.52592553	      0.00000000	     -3.83653061	      8.14536060	      1.60327175	    -14.75395103	     17.52948883	     -5.97129932	      0.00000000	    -25.67116472	     -1.17180139	     -3.83683116
